# xmcd CD database file
#
# Track frame offsets:
#	150
#	13050
#	23932
#	38722
#	52632
#	67780
#	79923
#	92254
#	102957
#	116204
#	131605
#	142625
#	154794
#	170484
#	182959
#	195419
#	208594
#	220744
#
# Disc length: 3116 seconds
#
# Revision: 0
# Processed by: cddbd v1.5.2PL0 Copyright (c) Steve Scherf et al.
# Submitted via: CDex 2.01
#
DISCID=e50c2a12
DTITLE=Aretha Franklin - The Classic Years [CD2)
DYEAR=2014
DGENRE=Blues
TTITLE0=I Don't Know You Anymore
TTITLE1=Nobody Like You
TTITLE2=Maybe I'm A Fool
TTITLE3=God Bless The Child
TTITLE4=Won't Be Long
TTITLE5=It's So Heartbreakin'
TTITLE6=I'm Sitting On Top Of The World
TTITLE7=Just For You
TTITLE8=It Ain't Necessarily So
TTITLE9=Don't Cry, Baby
TTITLE10=Rock-A-Bye Your Baby With A Dixie Melody
TTITLE11=Over The Rainbow
TTITLE12=I'm Wandering
TTITLE13=Today I Sing The Blues
TTITLE14=I Told You So
TTITLE15=I Apologize
TTITLE16=(Blue) By Myself
TTITLE17=Blue Holiday
EXTD=YEAR: 2014
EXTT0=
EXTT1=
EXTT2=
EXTT3=
EXTT4=
EXTT5=
EXTT6=
EXTT7=
EXTT8=
EXTT9=
EXTT10=
EXTT11=
EXTT12=
EXTT13=
EXTT14=
EXTT15=
EXTT16=
EXTT17=
PLAYORDER=
